<svg xmlns="http://www.w3.org/2000/svg" viewBox="0 0 512 512">
  <rect width="512" height="512" rx="96" fill="#000000"/>
  <circle cx="256" cy="256" r="118" fill="none" stroke="#00ff41" stroke-width="14"/>
  <circle cx="256" cy="256" r="34" fill="#00ff41"/>
  <path d="M256 92v62M256 358v62M92 256h62M358 256h62" stroke="#00ff41" stroke-width="14" stroke-linecap="round"/>
  <path d="M64 148V96a32 32 0 0 1 32-32h52" fill="none" stroke="#00aa2a" stroke-width="14" stroke-linecap="round"/>
  <path d="M364 64h52a32 32 0 0 1 32 32v52" fill="none" stroke="#00aa2a" stroke-width="14" stroke-linecap="round"/>
  <path d="M448 364v52a32 32 0 0 1-32 32h-52" fill="none" stroke="#00aa2a" stroke-width="14" stroke-linecap="round"/>
  <path d="M148 448H96a32 32 0 0 1-32-32v-52" fill="none" stroke="#00aa2a" stroke-width="14" stroke-linecap="round"/>
</svg>
